<!DOCTYPE svg PUBLIC "-//W3C//DTD SVG 1.1//EN" "http://www.w3.org/Graphics/SVG/1.1/DTD/svg11.dtd">
<!-- Uploaded to: SVG Repo, www.svgrepo.com, Transformed by: SVG Repo Mixer Tools -->
<svg width="121px" height="121px" viewBox="-2.16 -2.16 28.32 28.32" fill="none" xmlns="http://www.w3.org/2000/svg" transform="rotate(0)" stroke="#008502">
<g id="SVGRepo_bgCarrier" stroke-width="0"/>
<g id="SVGRepo_tracerCarrier" stroke-linecap="round" stroke-linejoin="round" stroke="#CCCCCC" stroke-width="0.768"/>
<g id="SVGRepo_iconCarrier"> <path d="M7.2998 5H22L20 12H8.37675M21 16H9L7 3H4M4 8H2M5 11H2M6 14H2M10 20C10 20.5523 9.55228 21 9 21C8.44772 21 8 20.5523 8 20C8 19.4477 8.44772 19 9 19C9.55228 19 10 19.4477 10 20ZM21 20C21 20.5523 20.5523 21 20 21C19.4477 21 19 20.5523 19 20C19 19.4477 19.4477 19 20 19C20.5523 19 21 19.4477 21 20Z" stroke="#00850f" stroke-width="1.104" stroke-linecap="round" stroke-linejoin="round"/> </g>
</svg>